
<!-- <?xml version="1.0" encoding="UTF-8" standalone="no"?>
<!DOCTYPE svg PUBLIC "-//W3C//DTD SVG 1.1//EN" "http://www.w3.org/Graphics/SVG/1.1/DTD/svg11.dtd"> -->
<svg xmlns="http://www.w3.org/2000/svg" version="1.1" viewBox="0 0 500 500">
<g stroke-width="2.00" fill="none" stroke-linecap="butt">
<path stroke="#faa096" vector-effect="non-scaling-stroke" d="
  M 229.50 146.54
  Q 230.26 147.96 231.54 148.97
  Q 247.29 161.40 257.59 178.44
  Q 259.63 181.82 261.02 186.02
  Q 262.95 191.86 263.44 194.06
  Q 265.43 203.14 263.81 211.81
  Q 261.26 225.48 252.19 236.44
  Q 246.85 242.88 232.26 257.16
  Q 232.20 257.23 228.02 261.10
  Q 223.51 265.28 220.03 270.29
  Q 215.51 276.82 212.63 283.26
  Q 207.86 293.93 209.17 305.44
  Q 210.28 315.28 216.15 323.94
  Q 225.37 337.55 241.50 342.75
  Q 263.72 349.91 289.48 348.37"
/>
<path stroke="#faa096" vector-effect="non-scaling-stroke" d="
  M 273.05 271.07
  Q 270.25 280.32 270.79 289.75
  Q 271.17 296.47 274.06 302.22
  Q 276.60 307.29 281.30 312.59
  Q 286.60 318.58 294.06 322.69
  Q 306.42 329.50 320.09 330.36"
/>
</g>
<path fill="#fcfcfb" d="
  M 229.50 146.54
  Q 230.26 147.96 231.54 148.97
  Q 247.29 161.40 257.59 178.44
  Q 259.63 181.82 261.02 186.02
  Q 262.95 191.86 263.44 194.06
  Q 265.43 203.14 263.81 211.81
  Q 261.26 225.48 252.19 236.44
  Q 246.85 242.88 232.26 257.16
  Q 232.20 257.23 228.02 261.10
  Q 223.51 265.28 220.03 270.29
  Q 215.51 276.82 212.63 283.26
  Q 207.86 293.93 209.17 305.44
  Q 210.28 315.28 216.15 323.94
  Q 225.37 337.55 241.50 342.75
  Q 263.72 349.91 289.48 348.37
  Q 280.23 351.80 267.00 353.00
  Q 241.45 355.31 217.69 345.91
  Q 206.19 341.37 198.31 334.94
  Q 192.91 330.53 184.31 321.44
  Q 183.25 320.31 180.69 315.84
  Q 178.93 312.76 177.83 309.85
  Q 167.54 282.39 180.19 255.94
  Q 183.99 247.98 190.84 239.59
  Q 198.90 229.71 214.69 213.94
  Q 219.75 208.88 224.85 201.44
  Q 230.27 193.54 232.25 187.27
  Q 236.94 172.53 230.64 157.26
  Q 228.36 151.73 225.35 146.03
  Q 224.59 144.59 226.18 145.22
  L 229.50 146.54
  Z
  M 254.06 195.19
  Q 249.67 191.67 245.54 190.45
  A 0.45 0.45 13.3 0 0 244.97 190.80
  Q 242.56 203.53 252.45 211.52
  Q 255.86 214.28 260.11 216.33
  A 0.97 0.97 14.4 0 0 261.50 215.51
  Q 261.65 212.89 261.37 210.31
  Q 261.03 207.01 260.61 205.20
  Q 259.29 199.38 254.06 195.19
  Z"
/>
<path fill="#f74330" d="
  M 229.50 146.54
  Q 236.67 149.06 250.56 155.94
  Q 258.50 159.87 261.50 161.97
  Q 272.97 170.00 281.19 179.31
  Q 286.34 185.15 290.26 192.41
  Q 294.36 199.99 295.65 207.23
  Q 298.61 223.88 289.56 238.31
  Q 278.48 255.99 273.05 271.07
  Q 270.25 280.32 270.79 289.75
  Q 271.17 296.47 274.06 302.22
  Q 276.60 307.29 281.30 312.59
  Q 286.60 318.58 294.06 322.69
  Q 306.42 329.50 320.09 330.36
  Q 307.39 343.78 289.48 348.37
  Q 263.72 349.91 241.50 342.75
  Q 225.37 337.55 216.15 323.94
  Q 210.28 315.28 209.17 305.44
  Q 207.86 293.93 212.63 283.26
  Q 215.51 276.82 220.03 270.29
  Q 223.51 265.28 228.02 261.10
  Q 232.20 257.23 232.26 257.16
  Q 246.85 242.88 252.19 236.44
  Q 261.26 225.48 263.81 211.81
  Q 265.43 203.14 263.44 194.06
  Q 262.95 191.86 261.02 186.02
  Q 259.63 181.82 257.59 178.44
  Q 247.29 161.40 231.54 148.97
  Q 230.26 147.96 229.50 146.54
  Z"
/>
<path fill="#fcfcfb" d="
  M 320.09 330.36
  Q 306.42 329.50 294.06 322.69
  Q 286.60 318.58 281.30 312.59
  Q 276.60 307.29 274.06 302.22
  Q 271.17 296.47 270.79 289.75
  Q 270.25 280.32 273.05 271.07
  Q 283.24 281.79 296.65 281.60
  Q 304.04 281.49 311.20 277.73
  Q 317.78 274.26 323.50 268.50
  Q 331.98 259.96 337.23 251.68
  Q 337.50 251.25 337.63 251.74
  Q 341.98 267.59 340.75 284.50
  Q 338.79 311.49 320.09 330.36
  Z"
/>
</svg>
