<?xml version="1.0" standalone="no"?>
<!DOCTYPE svg PUBLIC "-//W3C//DTD SVG 20010904//EN"
 "http://www.w3.org/TR/2001/REC-SVG-20010904/DTD/svg10.dtd">
<svg version="1.0" xmlns="http://www.w3.org/2000/svg"
 width="1024.000000pt" height="1024.000000pt" viewBox="0 0 1024.000000 1024.000000"
 preserveAspectRatio="xMidYMid meet">
<metadata>
Created by potrace 1.14, written by Peter Selinger 2001-2017
</metadata>
<g transform="translate(0.000000,1024.000000) scale(0.100000,-0.100000)"
fill="#000000" stroke="none">
<path d="M4383 7511 c-140 -77 -334 -262 -458 -436 -110 -155 -255 -425 -220
-411 8 3 19 -2 23 -11 8 -13 10 -11 10 10 0 16 -5 24 -11 20 -6 -3 -7 -1 -3 6
4 6 11 9 16 6 4 -3 10 -2 13 2 2 5 2 3 1 -4 -2 -7 1 -15 6 -18 6 -4 10 -15 10
-26 0 -19 1 -19 16 -5 20 20 19 21 20 -9 1 -16 -2 -23 -10 -18 -6 3 -4 -2 6
-13 10 -12 15 -30 12 -49 -4 -30 -4 -30 7 -5 159 341 313 567 529 775 l51 50
-5 -35 c-3 -19 -8 -96 -11 -170 -14 -309 -51 -551 -119 -780 -18 -63 -32 -117
-30 -119 7 -8 32 33 27 43 -4 5 -2 6 3 3 5 -3 25 8 44 25 19 17 76 66 126 109
105 90 99 74 110 301 6 128 -8 477 -26 663 -8 73 -13 93 -31 108 -29 23 -45
21 -106 -12z"/>
<path d="M5402 7452 c-201 -104 -441 -343 -557 -554 l-37 -68 29 0 c15 0 58
-3 95 -6 l66 -7 41 82 c48 97 82 148 145 218 57 63 185 177 192 171 2 -3 -12
-46 -31 -97 -50 -129 -85 -280 -91 -391 l-6 -95 70 -62 c39 -35 72 -63 75 -63
2 0 7 55 10 123 9 159 39 365 82 552 41 174 42 200 16 215 -28 15 -40 13 -99
-18z"/>
<path d="M4863 6046 c-62 -15 -160 -53 -152 -60 2 -2 31 0 64 6 73 12 186 4
252 -18 26 -9 86 -38 133 -65 90 -51 195 -82 259 -77 l36 3 -70 58 c-88 74
-153 112 -234 137 -85 27 -209 33 -288 16z"/>
<path d="M6345 5677 c-35 -30 -43 -90 -20 -159 18 -56 91 -183 123 -211 17
-16 20 -15 50 14 63 62 109 173 97 236 -19 104 -180 181 -250 120z"/>
</g>
</svg>
